<svg xmlns="http://www.w3.org/2000/svg" viewBox="0 0 256 256">
  <defs>
    <linearGradient id="grad" x1="0%" y1="0%" x2="100%" y2="100%">
      <stop offset="0%" style="stop-color:#3B82F6;stop-opacity:1" />
      <stop offset="100%" style="stop-color:#14B8A6;stop-opacity:1" />
    </linearGradient>
  </defs>
  <rect x="40" y="60" width="140" height="160" rx="12" fill="url(#grad)"/>
  <rect x="40" y="60" width="140" height="40" rx="12" fill="url(#grad)"/>
  <rect x="40" y="80" width="140" height="20" fill="#2563EB"/>
  <line x1="75" y1="50" x2="75" y2="75" stroke="#fff" stroke-width="8" stroke-linecap="round"/>
  <line x1="145" y1="50" x2="145" y2="75" stroke="#fff" stroke-width="8" stroke-linecap="round"/>
  <rect x="60" y="120" width="25" height="20" rx="3" fill="#fff" opacity="0.9"/>
  <rect x="95" y="120" width="25" height="20" rx="3" fill="#fff" opacity="0.9"/>
  <rect x="130" y="120" width="25" height="20" rx="3" fill="#fff" opacity="0.9"/>
  <rect x="60" y="150" width="25" height="20" rx="3" fill="#fff" opacity="0.9"/>
  <rect x="95" y="150" width="25" height="20" rx="3" fill="#fff" opacity="0.9"/>
  <rect x="130" y="150" width="25" height="20" rx="3" fill="#fff" opacity="0.9"/>
  <rect x="60" y="180" width="25" height="20" rx="3" fill="#fff" opacity="0.9"/>
  <circle cx="180" cy="180" r="46" fill="#fff"/>
  <circle cx="180" cy="180" r="40" fill="url(#grad)"/>
  <circle cx="180" cy="180" r="4" fill="#fff"/>
  <line x1="180" y1="180" x2="180" y2="155" stroke="#fff" stroke-width="5" stroke-linecap="round"/>
  <line x1="180" y1="180" x2="200" y2="180" stroke="#fff" stroke-width="5" stroke-linecap="round"/>
</svg>